<?xml version="1.0" encoding="utf-8"?>
<!-- Generator: Adobe Illustrator 25.0.1, SVG Export Plug-In . SVG Version: 6.00 Build 0)  -->
<svg version="1.1" id="Layer_1" xmlns="http://www.w3.org/2000/svg" xmlns:xlink="http://www.w3.org/1999/xlink" x="0px" y="0px"
	 viewBox="0 0 124.73 54.95" style="enable-background:new 0 0 124.73 54.95;" xml:space="preserve">
<g>
	<g>
		<path d="M19.65,29.1c-0.6-0.25-0.99-0.57-1.17-0.96c-0.18-0.36-0.13-0.72,0.16-1.06c0.31-0.39,0.82-0.67,1.52-0.85
			c1.89-0.43,3.58-0.56,5.06-0.38c1.25,0.14,2.4,0.51,3.46,1.13c0.34,0.23,0.64,0.5,0.9,0.82c0.16,0.21,0.34,0.51,0.54,0.92
			c0.23,0.41,0.41,0.71,0.54,0.89c0.23,0.34,0.51,0.64,0.82,0.89c1.32,1.25,2.04,2.32,2.14,3.21c0.1,1-0.62,1.61-2.18,1.81
			c-2.15,1.14-4.31,2.07-6.46,2.8c-2.31,0.77-4.35,1.23-6.11,1.37c-0.86,0.11-1.53,0.14-2.02,0.07c-0.42-0.05-0.61-0.14-0.58-0.27
			c0-0.16,0.21-0.28,0.62-0.38c0.44-0.09,0.99-0.1,1.63-0.03c0.62,0.14,1.88-0.39,3.78-1.57c1.12-0.73,2.96-2.05,5.53-3.96
			l1.09-0.79c1.14-0.93,1.15-1.71,0.04-2.32c-1.19-0.66-3.39-0.96-6.58-0.89h-0.23C21.13,29.52,20.3,29.37,19.65,29.1z M39.03,24
			c-0.52-0.52-1.23-1.1-2.14-1.74c-0.29-0.25-0.3-0.49-0.04-0.72c0.26-0.23,0.7-0.35,1.32-0.38c0.7-0.02,1.5,0.1,2.41,0.38
			c1.09,0.34,2.23,0.89,3.43,1.64c0.49,0.32,0.79,0.65,0.9,0.99c0.05,0.21,0.04,0.54-0.04,0.99c-0.03,0.23-0.05,0.4-0.08,0.51
			c0,0.18,0,0.38,0,0.58l-0.04,7.83c0,1.69-0.29,3.16-0.86,4.41c-0.34,0.68-0.86,1.42-1.56,2.22c-0.16,0.21-0.27,0.34-0.35,0.41
			c-0.1,0.14-0.17,0.26-0.19,0.38c1.58,0.8,2.53,1.42,2.84,1.88c0.18,0.32,0.12,0.8-0.19,1.44l-0.35,0.82
			c-0.08,1.3-0.21,2.26-0.39,2.87c-0.1,0.39-0.31,0.79-0.62,1.2c-0.1,0.16-0.18,0.29-0.23,0.38c-0.1,0.14-0.19,0.3-0.27,0.48
			c1.25,0.91,1.62,1.65,1.13,2.22c-0.47,0.5-1.52,0.69-3.15,0.58c-1.82,0.32-3.13,0.47-3.93,0.44c-0.52-0.02-1.13-0.18-1.83-0.48
			c-0.29-0.14-0.51-0.24-0.66-0.31c-0.31-0.11-0.62-0.21-0.93-0.27c-0.42,1.32-0.87,2.02-1.36,2.08c-0.52,0.09-1.05-0.54-1.6-1.88
			l-0.54-2.15c-0.23-0.98-0.43-1.72-0.58-2.22c-0.23-0.84-0.48-1.53-0.74-2.05c-0.08-0.16-0.19-0.35-0.35-0.58
			c-0.08-0.11-0.22-0.31-0.43-0.58c-0.47-0.62-0.77-1.07-0.9-1.37c-0.18-0.48-0.1-0.87,0.23-1.16c0.44-0.41,1.23-0.4,2.37,0.03
			c1.06,0.41,1.95,0.98,2.65,1.71c-0.6-0.71-0.67-1.17-0.23-1.4c0.29-0.14,1.1-0.25,2.45-0.34c1.38-0.09,2.46-0.21,3.27-0.34
			c1.38-0.23,2.61-0.57,3.7-1.03c0.05-0.18,0.08-0.41,0.08-0.68c-0.03-0.18-0.08-0.56-0.16-1.13c-0.21-1.46-0.36-2.89-0.47-4.31
			c-0.21-2.53-0.31-5.53-0.31-8.99l-0.04-0.27C40.24,25.5,39.84,24.8,39.03,24z M32.92,45.91c0.08,0.18,0.09,0.52,0.04,1.03
			c-0.08,0.55-0.1,1.06-0.08,1.54c0,0.8,0.09,1.73,0.27,2.8c0.78,0,1.96-0.09,3.54-0.27c1.53-0.18,2.78-0.36,3.74-0.55
			c0.03-0.66-0.01-1.49-0.12-2.5c-0.1-1.12-0.27-2.19-0.51-3.21c-0.86,0.07-1.63,0.17-2.34,0.31c-0.42,0.07-0.91,0.16-1.48,0.27
			c-0.75,0.14-1.28,0.19-1.6,0.17c-0.39-0.05-1.05-0.26-1.98-0.65l-0.31-0.03C32.55,45.27,32.82,45.64,32.92,45.91z"/>
		<path d="M58.92,31.42c-0.13-0.16-0.34-0.4-0.62-0.72c-0.44-0.5-0.71-0.87-0.82-1.09c-0.16-0.36-0.08-0.67,0.23-0.92
			c0.36-0.3,1.06-0.32,2.1-0.07c1.06,0.23,2.04,0.65,2.92,1.26c0.62,0.5,1,0.93,1.13,1.3c0.08,0.3,0.08,0.82,0,1.57
			c-0.1,0.73-0.17,1.36-0.19,1.88c-0.03,0.93,0.01,1.95,0.12,3.04c0.62-0.09,1.43-0.24,2.41-0.44c1.43-0.32,2.67-0.64,3.74-0.96
			c-0.03-0.3-0.06-0.64-0.12-1.03c-0.03-0.27-0.09-0.76-0.19-1.47l-0.43-3.35c-0.36,0.07-0.71,0.15-1.05,0.24
			c-0.18,0.07-0.43,0.15-0.74,0.24c-0.62,0.21-1.06,0.3-1.32,0.27c-0.36-0.02-0.91-0.23-1.63-0.62c-1.14-0.62-1.67-1.06-1.6-1.33
			c0.08-0.25,0.7-0.44,1.87-0.58L65,28.62c0.54-0.07,0.99-0.12,1.32-0.17c0.52-0.09,1.14-0.22,1.87-0.38
			c0.16-0.07,0.32-0.16,0.51-0.27c0.1-0.05,0.26-0.14,0.47-0.27c0.57-0.36,1.05-0.55,1.44-0.55c0.62,0,1.41,0.33,2.37,0.99
			c0.73,0.57,1.13,1.01,1.21,1.33c0.08,0.23-0.04,0.58-0.35,1.06l-0.54,0.99c0.03,0.71-0.08,1.53-0.31,2.46
			c-0.1,0.52-0.31,1.25-0.62,2.19l-0.04,0.17c0.93,0.91,1.25,1.62,0.93,2.12c-0.34,0.55-1.36,0.85-3.08,0.92
			c-0.57,0.07-1.09,0.16-1.56,0.27c-0.26,0.07-0.57,0.15-0.93,0.24c-0.52,0.16-0.95,0.23-1.28,0.21c-0.42-0.02-1.21-0.16-2.37-0.41
			c-0.52,1.19-1.04,1.78-1.56,1.78c-0.54-0.02-1.01-0.67-1.4-1.95c-0.1-0.34-0.22-0.77-0.35-1.3c-0.08-0.32-0.18-0.85-0.31-1.61
			c-0.18-0.87-0.32-1.53-0.43-1.98c-0.16-0.75-0.31-1.41-0.47-1.98l-0.12-0.24C59.29,31.99,59.13,31.72,58.92,31.42z M71.18,45.19
			c0.83,0.48,1.34,1.04,1.52,1.67c0.05,0.21,0.08,0.47,0.08,0.79c0,0.21-0.01,0.5-0.04,0.89c-0.05,0.8-0.04,1.36,0.04,1.67
			c0.13,0.55,0.48,0.88,1.05,0.99c1.25-0.05,2.49-0.17,3.74-0.38c0.86-0.14,2.08-0.39,3.66-0.75c0.8-0.14,1.45-0.07,1.95,0.21
			c0.49,0.27,0.74,0.68,0.74,1.23c0,0.77-0.78,1.46-2.34,2.05c-1.3,0.5-2.84,0.84-4.63,1.03c-1.04,0.09-1.95,0-2.72-0.27
			c-0.91-0.27-1.73-0.8-2.45-1.57l-0.47-0.68c-0.6-0.91-1.09-1.64-1.48-2.19c-0.68-0.93-1.35-1.77-2.02-2.5
			c-1.14-1.05-1.67-1.83-1.6-2.36c0.08-0.48,0.66-0.72,1.75-0.72l0.23,0.03C69.33,44.41,70.33,44.69,71.18,45.19z M78.89,24.17
			c-0.65-0.75-1.39-1.41-2.22-1.98c-0.36-0.3-0.43-0.55-0.19-0.75c0.23-0.23,0.69-0.34,1.36-0.34c0.75,0,1.61,0.17,2.57,0.51
			c1.14,0.39,2.32,0.97,3.54,1.74c0.44,0.34,0.7,0.73,0.78,1.16c0.05,0.25,0.03,0.63-0.08,1.13l-0.04,0.68l0.04,7.9
			c-0.03,2.55-0.34,4.9-0.93,7.04c-0.39,1.39-0.88,2.67-1.48,3.83c-0.99,1.66-1.53,2.32-1.63,1.98c-0.05-0.23,0.09-0.82,0.43-1.78
			c0.1-0.52,0.13-1.03,0.08-1.5c-0.03-0.32-0.12-0.82-0.27-1.5c-0.18-0.91-0.32-1.69-0.43-2.32c-0.16-1.14-0.23-2.42-0.23-3.83
			l-0.04-9.64C80.14,25.86,79.72,25.09,78.89,24.17z"/>
		<path d="M105.9,27.69c-0.08-0.14-0.21-0.33-0.39-0.58c-0.44-0.62-0.7-1.06-0.78-1.33c-0.16-0.48,0-0.84,0.47-1.09
			c0.57-0.36,1.41-0.31,2.53,0.17c1.27,0.57,2.31,1.55,3.11,2.94c0.36,0.64,0.39,1.22,0.08,1.74c-0.21,0.3-0.64,0.68-1.28,1.16
			c-0.23,0.18-0.4,0.31-0.51,0.38c-0.18,0.14-0.31,0.26-0.39,0.38l1.13,0.72c0.73,0.41,1.19,0.75,1.4,1.03
			c0.36,0.43,0.47,1.01,0.31,1.74c0.08,1,0,1.8-0.23,2.39c-0.13,0.36-0.4,0.79-0.82,1.26l-0.51,0.65c-0.42,0.64-0.71,0.95-0.89,0.92
			c-0.13-0.05-0.31-0.41-0.54-1.09c-0.23-0.62-0.44-1.28-0.62-1.98c-0.1-0.41-0.22-0.98-0.35-1.71c-0.16-0.77-0.29-1.3-0.39-1.57
			c-0.13-0.41-0.31-0.65-0.54-0.72c-1.58,0.84-3.02,1.5-4.32,1.98c-1.45,0.5-2.85,0.82-4.2,0.96c-0.47,0.05-0.9,0.03-1.28-0.03
			c-0.36-0.07-0.58-0.16-0.66-0.27c-0.1-0.14-0.01-0.26,0.27-0.38c0.31-0.11,0.83-0.17,1.56-0.17c1.09-0.25,2.71-1.3,4.87-3.14
			c2.08-1.8,3.17-3.03,3.27-3.69v-0.14C106.12,28.05,106.03,27.88,105.9,27.69z M113.65,45.26c-0.83,0.16-1.69,0.38-2.57,0.65
			c-0.65,0.18-1.13,0.26-1.44,0.24c-0.42-0.02-1.12-0.22-2.1-0.58c-1.04-0.41-1.86-0.82-2.45-1.23c-0.57-0.39-0.91-0.73-1.01-1.03
			c-0.13-0.32-0.04-0.56,0.27-0.72c0.31-0.16,0.79-0.22,1.44-0.17c1.48,0.14,3.44,0.19,5.88,0.17c2.49-0.05,4.58-0.17,6.27-0.38
			c0.29-0.05,0.58-0.11,0.9-0.21c0.21-0.05,0.47-0.11,0.78-0.21c0.65-0.21,1.14-0.28,1.48-0.24c0.49,0.07,1.1,0.42,1.83,1.06
			c0.7,0.59,1.1,1.07,1.21,1.44c0.05,0.25-0.01,0.6-0.2,1.06c-0.1,0.21-0.17,0.36-0.19,0.48c-0.08,0.21-0.13,0.41-0.16,0.62
			c0,1.85-0.25,3.36-0.74,4.55c-0.31,0.77-0.82,1.58-1.52,2.43c-0.93,1.25-1.5,1.83-1.71,1.74c-0.16-0.09-0.09-0.63,0.19-1.61
			c0.08-0.36,0.12-0.79,0.12-1.26c-0.03-0.32-0.08-0.87-0.16-1.64c-0.13-0.93-0.21-1.73-0.23-2.39c-0.08-1.09-0.12-2.24-0.12-3.45
			l-0.12,0.03C117.04,44.77,115.15,44.99,113.65,45.26z M118.98,24.52c-0.57-0.59-1.44-1.34-2.61-2.26
			c-0.23-0.18-0.26-0.39-0.08-0.62c0.18-0.25,0.53-0.4,1.05-0.44c0.65-0.09,1.45,0.01,2.41,0.31c1.14,0.34,2.45,0.95,3.93,1.81
			c0.57,0.3,0.91,0.66,1.01,1.09c0.05,0.25,0.01,0.64-0.12,1.16l-0.12,0.68v5.61c-0.03,1.78-0.31,3.4-0.86,4.85
			c-0.31,0.84-0.83,1.87-1.56,3.08l-0.19,0.41c-0.7,1.03-1.13,1.44-1.28,1.23c-0.1-0.18-0.01-0.75,0.27-1.71
			c0.08-0.41,0.09-0.87,0.04-1.37c-0.03-0.32-0.12-0.83-0.27-1.54c-0.16-0.73-0.27-1.31-0.35-1.74c-0.1-0.73-0.16-1.44-0.16-2.12
			c-0.49,0.11-0.93,0.24-1.32,0.38c-0.23,0.11-0.52,0.25-0.86,0.41c-0.44,0.23-0.78,0.34-1.01,0.34c-0.36,0-0.93-0.17-1.71-0.51
			c-0.91-0.48-1.57-0.92-1.99-1.33c-0.39-0.34-0.57-0.65-0.54-0.92c0.03-0.25,0.19-0.43,0.51-0.55c0.31-0.11,0.67-0.15,1.09-0.1
			c1.32,0,2.32-0.03,3-0.1c0.96-0.09,1.91-0.27,2.84-0.55l-0.08-3.76C120.03,25.83,119.68,25.25,118.98,24.52z"/>
	</g>
	<g>
		<path d="M0.59,14.51c0.2-0.03,0.69-0.05,1.46-0.05l3.51,0.05c3,0.05,4.56,0.1,4.67,0.15c0.17,0.08,0.28,0.16,0.32,0.25
			c0.05,0.13,0.08,0.31,0.08,0.54c0,0.29-0.01,0.46-0.03,0.49c-0.08,0.13-0.73,0.21-1.96,0.25H0.26l-0.12-0.2
			C0.05,15.85,0,15.65,0,15.39C0,14.85,0.2,14.56,0.59,14.51z M1.91,1.64l3.4,0.02l3.87,0.02l0.14,0.27
			C9.4,2.14,9.44,2.33,9.44,2.53c0,0.39-0.09,0.65-0.27,0.79C9.09,3.38,8.85,3.42,8.44,3.44L7.78,3.49L7.74,4.3
			c-0.06,1.36-0.1,2.85-0.12,4.47V9.4l1.78,0.1l0.2,0.34c0.12,0.21,0.18,0.4,0.18,0.56c0,0.16-0.04,0.35-0.12,0.56
			c-0.09,0.2-0.19,0.32-0.29,0.37c-0.04,0.02-0.25,0.02-0.62,0.02c-0.55,0-1.03-0.01-1.46-0.02c-1.41-0.05-2.68-0.07-3.81-0.07
			c-1,0-1.62-0.02-1.85-0.07c-0.24-0.05-0.42-0.18-0.53-0.39c-0.07-0.11-0.11-0.33-0.11-0.64c0-0.34,0.05-0.55,0.15-0.61
			C1.21,9.48,1.49,9.47,1.97,9.5c0.36,0.03,0.59,0.03,0.67,0c0.08-0.03,0.14-0.08,0.17-0.15c0.04-0.11,0.06-0.59,0.06-1.42
			c0-0.75,0.01-1.7,0.05-2.85c0.01-0.25,0.02-0.56,0.02-0.93c0-0.47-0.02-0.74-0.05-0.79C2.84,3.28,2.6,3.22,2.14,3.19
			c-0.46-0.03-0.72-0.07-0.8-0.12c-0.14-0.1-0.22-0.29-0.24-0.59V2.41c0-0.25,0.06-0.44,0.18-0.59C1.35,1.73,1.56,1.68,1.91,1.64z
			 M4.13,9.45C4.18,9.5,4.56,9.52,5.27,9.52c0.72,0,1.09-0.03,1.12-0.1c0.08-0.16,0.14-1.16,0.17-2.99
			c0.01-0.41,0.02-0.92,0.02-1.55c0-0.83-0.02-1.28-0.06-1.33c-0.07-0.08-0.43-0.15-1.08-0.2C4.91,3.31,4.53,3.29,4.29,3.29
			c-0.13,0-0.21,0.01-0.23,0.02C4.04,3.33,4.02,3.75,4.02,4.57l0.01,1.82C4.06,8.41,4.09,9.43,4.13,9.45z"/>
		<path d="M14.66,0.42c1.14,0,2.11,0.02,2.91,0.05c0.01,0.02,0.05,0.02,0.11,0.02c0.93,0.02,1.48,0.07,1.64,0.15
			c0.17,0.08,0.3,0.33,0.39,0.74v0.05c0.05,0.25,0.08,0.45,0.09,0.61l-0.05,1.1c-0.05,0.74-0.1,1.2-0.15,1.4
			c-0.06,0.21-0.18,0.41-0.36,0.59c-0.1,0.1-0.22,0.16-0.35,0.2c-0.08,0.02-0.38,0.02-0.91,0.02c-1.05,0-1.88-0.01-2.47-0.02
			L14.54,5.3c-0.33,0-0.54,0.02-0.62,0.05c-0.05,0.02-0.09,0.07-0.11,0.15c-0.01,0.05-0.02,0.21-0.02,0.49
			c0,0.38,0.03,0.59,0.09,0.64c0.06,0.03,1.03,0.05,2.91,0.05c1.42,0,2.23,0.01,2.43,0.02c0.31,0.03,0.5,0.07,0.56,0.12
			c0.16,0.18,0.25,0.41,0.26,0.69v0.1c0,0.26-0.06,0.47-0.17,0.64c-0.07,0.1-0.17,0.16-0.3,0.17c-0.09,0.02-0.52,0.02-1.27,0.02
			c-0.95,0-1.44,0.05-1.47,0.15c-0.03,0.08-0.04,0.32-0.01,0.71l0.05,0.61l0.33,0.05c0.18,0.03,0.46,0.05,0.83,0.05l1.12-0.02
			c0.23,0,0.4-0.01,0.5-0.02c0.18,0,0.36,0,0.53-0.01c0.17-0.01,0.32,0,0.44,0.01c0.17,0.03,0.31,0.1,0.42,0.2
			c0.16,0.11,0.26,0.27,0.29,0.47c0.02,0.16,0.03,0.28,0.03,0.34c0,0.29-0.08,0.53-0.24,0.71c-0.09,0.07-0.25,0.11-0.49,0.15
			c-0.16,0.02-0.86,0.02-2.08,0.02l-6.92-0.12l-0.14-0.27c-0.08-0.18-0.12-0.34-0.12-0.49c0-0.16,0.04-0.33,0.12-0.49
			c0.04-0.11,0.1-0.2,0.18-0.25l0.36-0.12c0.3-0.05,0.93-0.07,1.87-0.07h0.47c0.65,0,1-0.03,1.06-0.1c0.05-0.05,0.08-0.28,0.09-0.69
			c0-0.39-0.02-0.65-0.06-0.76c-0.03-0.08-0.41-0.15-1.14-0.2l-0.55-0.02c-0.09,0-0.22-0.02-0.39-0.07
			c-0.17-0.03-0.27-0.06-0.3-0.07c-0.05,0-0.11-0.06-0.18-0.17c-0.09-0.13-0.14-0.22-0.14-0.27c-0.01-0.05-0.03-0.19-0.05-0.42
			c-0.03-0.23-0.05-0.41-0.05-0.54l-0.02-0.74c0-1.03,0.03-1.65,0.09-1.87l0.01-0.02c0.07-0.26,0.23-0.42,0.47-0.47
			c0.08-0.02,0.33-0.02,0.76-0.02c0.62,0,1.15,0.01,1.59,0.02h0.15c0.41,0.02,0.93,0.02,1.53,0.02c0.74,0,1.12-0.02,1.15-0.07
			c0.04-0.07,0.08-0.29,0.11-0.66l0.03-0.52l-0.18-0.02c-0.14-0.03-1.45-0.11-3.93-0.25c-1.02-0.02-1.57-0.06-1.64-0.12
			c-0.05-0.05-0.11-0.16-0.17-0.34c-0.07-0.16-0.11-0.3-0.11-0.42c0.02-0.15,0.06-0.29,0.11-0.42c0.05-0.13,0.11-0.23,0.18-0.29
			C12.92,0.46,13.53,0.42,14.66,0.42z M12.94,13.06c0.03-0.26,0.11-0.47,0.24-0.61c0.08-0.08,0.17-0.12,0.26-0.12
			c0.15,0,0.28,0.07,0.38,0.22c0.07,0.1,0.12,0.21,0.14,0.34c0.02,0.23,0.05,0.61,0.08,1.15c0.05,0.9,0.09,1.38,0.11,1.45
			c0.04,0.07,0.66,0.1,1.87,0.1h0.87c0.19,0,0.36-0.01,0.5-0.02h0.9c0.67,0,1.05,0.01,1.14,0.02c0.21,0.05,0.35,0.2,0.42,0.44
			l0.02,0.1c0.07,0.21,0.09,0.42,0.06,0.61l-0.08,0.34c-0.03,0.07-0.11,0.12-0.24,0.17c-0.1,0.03-0.25,0.07-0.46,0.1
			c-0.32,0-0.62,0.01-0.9,0.02h-0.82c-0.5,0-1.28-0.02-2.35-0.05c-1.08-0.05-1.68-0.11-1.81-0.2c-0.15-0.13-0.25-0.34-0.3-0.64
			c-0.05-0.33-0.08-0.91-0.08-1.74C12.88,13.87,12.9,13.3,12.94,13.06z"/>
		<path d="M22.12,15.37c0-0.18,0.05-0.35,0.15-0.52c0.01,0,0.01-0.01,0.01-0.02c0.08-0.15,0.24-0.24,0.47-0.27
			c0.34-0.03,1.1-0.07,2.28-0.12h0.35c0.9-0.05,1.92-0.07,3.05-0.07h1.2c1.27,0,1.99,0.01,2.14,0.02c0.22,0.02,0.37,0.07,0.44,0.17
			c0.1,0.11,0.16,0.33,0.18,0.64v0.12c0,0.23-0.04,0.4-0.11,0.52c-0.06,0.08-0.31,0.13-0.74,0.15C31.25,16,29.82,16,27.25,16h-4.92
			l-0.11-0.22C22.16,15.67,22.12,15.53,22.12,15.37z M24.52,1.79c0.2-0.02,1.17-0.02,2.91-0.02h3.34l0.14,0.32
			c0.09,0.2,0.14,0.38,0.14,0.54c0,0.13-0.03,0.26-0.09,0.39c-0.1,0.21-0.33,0.34-0.68,0.37c-0.34,0.02-1.35-0.01-3.02-0.07
			c-0.14,0-0.25-0.01-0.32-0.02l-1.05-0.02c-0.49,0-0.76,0.02-0.82,0.07L24.9,3.46v2.26h2.73c1.38,0,2.16,0.01,2.35,0.02
			c0.25,0.02,0.45,0.07,0.58,0.17c0.24,0.16,0.36,0.43,0.36,0.79c0,0.28-0.1,0.51-0.3,0.69c-0.08,0.07-0.25,0.1-0.52,0.1
			c-0.17,0.02-0.38,0.02-0.61,0.01c-0.24-0.01-0.48-0.01-0.74-0.01c-0.11-0.02-0.3-0.02-0.56-0.02c-1-0.02-1.9-0.05-2.7-0.1
			l-0.32-0.02c-0.11,0-0.19,0.02-0.23,0.05c-0.06,0.07-0.1,0.43-0.11,1.1l-0.01,0.66c0,0.33,0.01,0.54,0.05,0.64l0.06,0.27
			l2.91-0.02c1.95,0,2.97,0.03,3.07,0.1c0.21,0.16,0.32,0.5,0.32,1.01c0,0.26-0.07,0.49-0.21,0.69c-0.09,0.15-0.19,0.24-0.3,0.27
			l-0.15,0.02c-0.12,0-0.27-0.02-0.46-0.07c-0.19-0.05-1.03-0.11-2.5-0.2c-2.22-0.07-3.42-0.2-3.63-0.42
			c-0.18-0.18-0.28-0.47-0.29-0.86c-0.02-0.29-0.03-0.83-0.03-1.62l0.02-2.26c0.02-2.68,0.05-4.11,0.09-4.27
			c0.03-0.2,0.1-0.35,0.2-0.47C24.03,1.88,24.22,1.82,24.52,1.79z"/>
		<path d="M32.99,5.82c0-0.65,0.08-1.33,0.24-2.01c0.17-0.77,0.46-1.41,0.87-1.91c0.39-0.49,0.81-0.74,1.24-0.74
			c0.35,0,0.72,0.1,1.09,0.29c0.36,0.18,0.64,0.42,0.83,0.71c0.12,0.18,0.28,0.5,0.47,0.96c0.17,0.49,0.27,0.81,0.3,0.96
			c0.03,0.29,0.1,0.47,0.2,0.52c0.08,0.03,0.2,0.05,0.35,0.05l0.47-0.02c0.55-0.03,0.83-0.06,0.86-0.07
			c0.03-0.05,0.05-0.61,0.06-1.67c0.02-0.8,0.04-1.28,0.05-1.45c0.02-0.18,0.07-0.34,0.14-0.49c0.08-0.16,0.14-0.25,0.18-0.27
			c0.06-0.03,0.14-0.05,0.24-0.05h0.08h0.03c0.16,0,0.27,0.16,0.32,0.49c0.02,0.28,0.04,1.47,0.06,3.58v0.76l0.03,2.21
			c0,1.01,0,1.66,0.02,1.94v0.74c0,0.33-0.02,0.56-0.05,0.69c-0.05,0.16-0.13,0.28-0.24,0.34c-0.1,0.08-0.19,0.12-0.26,0.12
			c-0.04,0-0.09-0.02-0.15-0.05c-0.14-0.08-0.24-0.18-0.3-0.29c-0.13-0.21-0.2-1.24-0.2-3.09V7.78c0-0.72-0.03-1.15-0.08-1.28
			c-0.06-0.11-0.25-0.17-0.56-0.17h-0.11c-0.36,0-0.61-0.03-0.73-0.1c-0.14-0.08-0.24-0.08-0.29,0c-0.07,0.08-0.11,0.25-0.12,0.49
			c-0.03,0.21-0.06,0.38-0.09,0.52c-0.22,0.77-0.42,1.3-0.61,1.6C37.2,9.1,36.98,9.35,36.66,9.6c-0.17,0.15-0.32,0.24-0.44,0.27
			c-0.14,0.03-0.34,0.05-0.61,0.05c-0.34,0-0.62-0.05-0.83-0.15c-0.2-0.07-0.43-0.23-0.68-0.49c-0.24-0.23-0.41-0.47-0.52-0.71
			c-0.1-0.18-0.23-0.53-0.38-1.06C33.06,6.96,32.99,6.39,32.99,5.82z M34.25,7.07c0.07,0.29,0.21,0.55,0.42,0.76
			c0.13,0.16,0.25,0.26,0.35,0.29c0.12,0.07,0.32,0.1,0.61,0.1c0.25,0,0.44-0.05,0.56-0.15c0.26-0.23,0.48-0.61,0.65-1.15
			c0.08-0.26,0.12-0.7,0.12-1.33c0-0.36-0.01-0.65-0.03-0.88c-0.01-0.13-0.05-0.3-0.12-0.52c-0.17-0.54-0.42-0.92-0.74-1.13
			c-0.21-0.16-0.42-0.25-0.64-0.25c-0.16,0-0.32,0.07-0.49,0.2c-0.13,0.13-0.26,0.33-0.39,0.59c-0.16,0.31-0.26,0.57-0.3,0.79
			c-0.08,0.34-0.12,0.79-0.12,1.35C34.13,6.32,34.17,6.76,34.25,7.07z M35.14,15.56l0.02-1.1c0.01-1.37,0.05-2.17,0.11-2.38
			c0.05-0.21,0.12-0.35,0.21-0.42c0.1-0.08,0.16-0.12,0.18-0.12c0.02,0,0.1,0.04,0.23,0.12c0.16,0.1,0.26,0.25,0.3,0.47
			c0.04,0.26,0.07,0.83,0.08,1.69l0.03,1.64h1.06l1.38-0.02c0.75,0,1.21-0.01,1.4-0.02h0.71c0.54,0,0.91,0.02,1.11,0.05
			c0.2,0.08,0.33,0.26,0.39,0.54c0.04,0.15,0.06,0.3,0.06,0.47c0,0.26-0.07,0.47-0.2,0.61c-0.07,0.07-0.26,0.11-0.58,0.15
			c-0.21,0.02-1.14,0.02-2.79,0.02h-0.18c-1.61-0.02-2.56-0.04-2.85-0.07c-0.29-0.05-0.49-0.19-0.58-0.42l-0.02-0.02
			c-0.04-0.08-0.06-0.26-0.06-0.54L35.14,15.56z M42.67,0.54h0.08c0.17,0.03,0.27,0.23,0.3,0.59c0.02,0.36,0.03,1.1,0.03,2.21v1.52
			v0.96c-0.02,2.68-0.04,4.31-0.06,4.88c-0.03,0.75-0.1,1.22-0.2,1.4c-0.07,0.15-0.16,0.22-0.26,0.22c-0.23,0-0.42-0.19-0.56-0.56
			c-0.03-0.1-0.06-0.34-0.08-0.74c-0.01-0.23-0.02-1.05-0.02-2.45c0-2.01,0.02-3.71,0.06-5.08c0.03-1.57,0.07-2.42,0.11-2.55
			c0.06-0.15,0.13-0.25,0.2-0.32C42.37,0.53,42.5,0.51,42.67,0.54z"/>
		<path d="M45.13,14.41c0.1-0.2,0.2-0.3,0.29-0.32c0.12-0.03,1.76-0.05,4.9-0.05l2,0.02c1.12,0,1.8,0.01,2.02,0.02
			c0.54,0.03,0.83,0.07,0.9,0.12c0.15,0.11,0.23,0.33,0.23,0.64c0,0.13-0.01,0.23-0.02,0.29c-0.01,0.21-0.09,0.37-0.23,0.47
			c-0.12,0.1-0.47,0.13-1.05,0.1c-0.47-0.03-2.09-0.07-4.87-0.1l-4.05-0.05c-0.05,0-0.11-0.08-0.17-0.25
			c-0.07-0.13-0.11-0.25-0.11-0.37C44.98,14.77,45.03,14.59,45.13,14.41z M50.3,2.04l3,0.02l0.14,0.27
			c0.09,0.16,0.14,0.37,0.14,0.61c0,0.21-0.05,0.41-0.14,0.59l-0.14,0.25l-1.03-0.12c-0.84-0.08-1.77-0.12-2.79-0.12
			c-0.26-0.02-0.59-0.02-0.97-0.02c-0.27,0-0.45,0.01-0.52,0.02c-0.21,0.03-0.33,0.07-0.35,0.12c-0.03,0.1-0.05,0.61-0.05,1.52v1.08
			c0.01,1.6,0.04,2.44,0.08,2.5c0.01,0.03,0.97,0.07,2.87,0.1l2.82,0.02l0.15,0.29c0.11,0.21,0.17,0.4,0.17,0.56
			c0,0.13-0.02,0.25-0.06,0.37c-0.06,0.2-0.24,0.31-0.53,0.34c-0.3,0.03-0.87,0.05-1.7,0.05h-1.14c-1.7,0-2.71-0.02-3.03-0.07
			c-0.3-0.05-0.51-0.22-0.62-0.52c-0.05-0.18-0.08-0.43-0.09-0.76C46.5,8.93,46.5,8.01,46.5,6.41c0-1.98,0.03-3.17,0.09-3.58
			c0.04-0.39,0.22-0.64,0.53-0.74C47.26,2.05,48.32,2.04,50.3,2.04z"/>
		<path d="M59.86,3.61c0-0.21,0.05-0.42,0.15-0.61l0.12-0.22l2.09,0.02c1.38,0,2.16,0.02,2.35,0.07c0.28,0.08,0.48,0.25,0.58,0.52
			c0.06,0.16,0.09,0.36,0.09,0.59c0,0.15-0.02,0.31-0.05,0.49c-0.07,0.36-0.16,0.71-0.26,1.06c-0.11,0.44-0.36,1.25-0.74,2.43
			c-0.42,1.37-0.69,2.21-0.8,2.5c-0.18,0.52-0.41,1.09-0.7,1.69c-0.53,1.18-0.92,1.92-1.18,2.23c-0.11,0.13-0.23,0.2-0.35,0.2
			c-0.13,0-0.25-0.08-0.36-0.25c-0.11-0.18-0.17-0.35-0.17-0.52v-0.07c0-0.18,0.05-0.4,0.14-0.66c0.09-0.25,0.18-0.47,0.27-0.69
			c0.11-0.25,0.2-0.42,0.26-0.52c0.15-0.25,0.35-0.68,0.61-1.3c0.34-0.83,0.56-1.4,0.65-1.69c0.14-0.47,0.23-0.74,0.26-0.79
			c0.08-0.21,0.23-0.65,0.44-1.33c0.26-0.88,0.41-1.39,0.44-1.52c0.09-0.39,0.12-0.62,0.08-0.69c-0.04-0.08-0.65-0.13-1.82-0.15
			c-1.16-0.02-1.79-0.07-1.88-0.17c-0.13-0.11-0.2-0.3-0.21-0.56V3.61z M69.8,0.96c0.14,0.03,0.25,0.09,0.32,0.17
			c0.04,0.07,0.07,0.22,0.09,0.47c0.02,0.21,0.04,0.75,0.05,1.62c0.04,1.59,0.06,4.06,0.06,7.41c-0.02,3.22-0.04,4.97-0.06,5.23
			c-0.04,0.43-0.1,0.7-0.18,0.81c-0.06,0.1-0.17,0.15-0.33,0.15c-0.26,0-0.43-0.06-0.52-0.17c-0.05-0.08-0.1-0.23-0.14-0.44
			c-0.04-0.2-0.05-0.35-0.03-0.47c0.04-0.18,0.06-1.75,0.06-4.71c0-1.15-0.02-1.75-0.06-1.82c-0.04-0.07-0.3-0.1-0.77-0.1
			c-0.39,0.03-0.6,0.05-0.61,0.05c-0.08,0.02-0.15,0.07-0.2,0.15c-0.03,0.08-0.06,0.3-0.08,0.66c-0.02,0.38-0.04,1.24-0.05,2.6
			c-0.01,2.01-0.05,3.17-0.12,3.46c-0.1,0.39-0.25,0.59-0.44,0.59c-0.09,0-0.2-0.05-0.32-0.15c-0.16-0.11-0.26-0.33-0.29-0.64
			c-0.04-0.25-0.06-1-0.06-2.26c0-1.49,0.02-2.57,0.06-3.24c0.04-0.54,0.08-2.09,0.11-4.64c0.03-1.87,0.06-3.02,0.09-3.46
			s0.1-0.74,0.21-0.88c0.08-0.1,0.18-0.16,0.29-0.17h0.06c0.11,0,0.2,0.06,0.27,0.17c0.07,0.11,0.11,0.25,0.12,0.39
			c0.02,0.18,0.04,0.63,0.05,1.35c0.03,0.98,0.05,1.92,0.05,2.82c0,0.85,0.02,1.33,0.06,1.45c0.03,0.07,0.09,0.1,0.17,0.1h0.09
			c0.14,0,0.27-0.01,0.39-0.02c0.34-0.07,0.57-0.08,0.68-0.05h0.05c0.06,0,0.12-0.05,0.18-0.15c0.05-0.08,0.08-0.25,0.09-0.52
			c0.01-0.18,0.01-0.93,0.01-2.26c0-1.41,0.02-2.27,0.05-2.58c0.03-0.33,0.12-0.58,0.26-0.76C69.54,1.01,69.65,0.96,69.8,0.96z"/>
		<path d="M76.89,0c0.1,0,0.22,0.08,0.35,0.25l0.17,0.22l0.05,2.06c0.01,0.44,0.02,1.05,0.02,1.82c0,0.87-0.01,1.49-0.03,1.87
			c-0.02,0.92-0.05,1.47-0.09,1.67c-0.04,0.2-0.17,0.34-0.38,0.44c-0.17,0.08-0.69,0.12-1.55,0.12h-0.59
			c-1.22,0-1.92-0.04-2.09-0.12c-0.22-0.11-0.36-0.38-0.42-0.79c-0.01-0.05-0.02-0.29-0.02-0.74c0-0.83,0.01-1.59,0.03-2.26
			c0.03-1.85,0.07-2.94,0.11-3.26c0.05-0.38,0.11-0.61,0.18-0.71c0.11-0.16,0.23-0.25,0.35-0.25c0.08,0,0.15,0.03,0.2,0.1
			c0.11,0.11,0.19,0.29,0.24,0.52c0.03,0.16,0.06,0.56,0.08,1.18c0.02,0.7,0.04,1.08,0.06,1.13c0.04,0.03,0.29,0.05,0.76,0.05h0.62
			c0.89-0.02,1.36-0.07,1.4-0.17c0.03-0.08,0.05-0.52,0.05-1.33V0.56l0.17-0.27C76.65,0.1,76.77,0,76.89,0z M73.55,6.65
			c0.12,0.08,0.51,0.12,1.17,0.12h0.17c0.87,0,1.32-0.05,1.37-0.15c0.05-0.08,0.07-0.38,0.05-0.88l-0.02-0.76l-0.32-0.05
			c-0.2-0.03-0.65-0.06-1.35-0.07h-0.11c-0.58,0-0.91,0.03-0.99,0.1c-0.09,0.07-0.14,0.32-0.14,0.76v0.17
			C73.38,6.32,73.44,6.57,73.55,6.65z M74.23,9.77c0.06-0.03,0.77-0.05,2.12-0.05l3.34,0.07c0.32,0,0.51,0.01,0.56,0.02
			c0.07,0.02,0.15,0.08,0.23,0.2c0.12,0.16,0.2,0.37,0.23,0.61c0.02,0.2,0.03,0.42,0.03,0.66c0,1.08-0.04,1.82-0.11,2.23
			c-0.06,0.26-0.18,0.47-0.36,0.61c-0.1,0.07-0.28,0.11-0.53,0.15c-0.16,0.02-0.84,0.02-2.05,0.02c-1.56,0-2.38,0.03-2.47,0.1
			c-0.09,0.08-0.15,0.17-0.17,0.27c-0.03,0.11-0.05,0.33-0.05,0.64c0,0.18,0.01,0.3,0.03,0.37c0.01,0.07,0.05,0.11,0.11,0.12
			c0.13,0.05,0.79,0.08,1.97,0.1c1.01,0.02,1.91,0.06,2.7,0.12c0.41,0.03,0.67,0.06,0.76,0.07c0.08,0.02,0.16,0.08,0.23,0.2
			c0.08,0.18,0.12,0.36,0.12,0.54c0,0.39-0.15,0.67-0.44,0.83c-0.09,0.05-0.49,0.07-1.2,0.07l-1.56-0.02
			c-1.61-0.02-2.6-0.06-2.97-0.12c-0.33-0.05-0.55-0.19-0.64-0.42c-0.04-0.11-0.07-0.29-0.09-0.52c-0.01-0.15-0.02-0.62-0.02-1.42
			v-1.37V13.8c0-0.11,0.04-0.3,0.11-0.56c0.08-0.23,0.14-0.37,0.18-0.42c0.03-0.03,0.18-0.09,0.46-0.17
			c0.28-0.05,0.51-0.07,0.68-0.05l1.06,0.07h0.36c0.48,0.03,1.03,0.05,1.65,0.05c0.34,0,0.55-0.01,0.62-0.02
			c0.21-0.05,0.34-0.25,0.39-0.59c0.01-0.08,0.02-0.2,0.02-0.34c0-0.13-0.01-0.22-0.03-0.27c-0.03-0.08-0.16-0.13-0.38-0.15
			c-0.15-0.02-0.85-0.02-2.09-0.02c-1.61,0-2.48-0.03-2.61-0.1c-0.29-0.13-0.44-0.37-0.44-0.71C73.99,10.1,74.07,9.85,74.23,9.77z
			 M79.39,3.9c0.03-1.67,0.06-2.68,0.09-3.04c0.03-0.34,0.11-0.58,0.23-0.71c0.08-0.08,0.2-0.11,0.36-0.07
			c0.09,0,0.17,0.02,0.23,0.05c0.02,0.03,0.06,0.12,0.12,0.27c0.06,0.21,0.09,0.83,0.09,1.87s0.02,1.59,0.08,1.67
			c0.02,0.02,0.09,0.02,0.2,0.02c0.17,0,0.32-0.01,0.44-0.02c0.09-0.02,0.22-0.02,0.39-0.02c0.38,0,0.66,0.11,0.83,0.34
			c0.09,0.11,0.14,0.34,0.14,0.66c0,0.26-0.01,0.41-0.02,0.44c-0.01,0.05-0.07,0.11-0.18,0.2c-0.09,0.07-0.28,0.1-0.58,0.1h-0.67
			c-0.21,0-0.35,0.01-0.41,0.02c-0.14,0.05-0.24,0.16-0.29,0.34c-0.03,0.15-0.05,0.61-0.05,1.4c0,0.61-0.01,0.95-0.02,1.03
			c-0.02,0.15-0.07,0.28-0.14,0.39c-0.09,0.2-0.22,0.29-0.39,0.29c-0.16,0-0.29-0.07-0.38-0.22c-0.07-0.11-0.12-0.38-0.14-0.79
			C79.34,7.73,79.35,6.32,79.39,3.9z"/>
		<path d="M83.07,3.83c0-0.2,0.03-0.35,0.08-0.47c0.09-0.21,0.26-0.34,0.52-0.39c0.43-0.05,1.25-0.08,2.46-0.1l1.41-0.02
			c0.86,0,1.34-0.01,1.43-0.02c0.35-0.03,0.6,0.11,0.73,0.42c0.07,0.16,0.11,0.29,0.11,0.39c0,0.1-0.03,0.24-0.09,0.42
			c-0.09,0.25-0.22,0.4-0.38,0.47c-0.15,0.07-0.53,0.1-1.14,0.1c-0.7,0-1.08,0.03-1.15,0.1c-0.05,0.08-0.09,0.55-0.12,1.4
			c-0.01,0.56-0.01,0.92,0,1.1c0,0.16,0.02,0.3,0.06,0.42c0.15,0.36,0.79,1.52,1.91,3.49c0.51,0.88,0.81,1.47,0.91,1.77
			c0.03,0.11,0.05,0.22,0.05,0.32c0,0.16-0.04,0.31-0.12,0.44c-0.1,0.16-0.22,0.25-0.35,0.25c-0.09,0-0.18-0.03-0.26-0.1
			c-0.24-0.16-0.54-0.56-0.88-1.2c-0.37-0.69-0.74-1.33-1.11-1.91c-0.37-0.65-0.61-1.01-0.71-1.06h-0.03c-0.09,0-0.2,0.17-0.32,0.52
			c-0.05,0.15-0.25,0.67-0.61,1.57c-0.33,0.83-0.56,1.4-0.67,1.69c-0.14,0.38-0.27,0.64-0.39,0.79c-0.13,0.16-0.28,0.25-0.44,0.25
			c-0.16,0-0.31-0.09-0.44-0.27c-0.11-0.15-0.17-0.33-0.17-0.54c0-0.05,0.01-0.14,0.03-0.27c0.04-0.25,0.23-0.72,0.56-1.42
			c0.6-1.21,1.11-2.41,1.53-3.58c0.12-0.34,0.2-0.61,0.23-0.79l0.09-1.3l0.05-1.23c0-0.15-0.02-0.25-0.06-0.32
			c-0.05-0.07-0.47-0.1-1.24-0.1c-0.58,0-0.91-0.01-1-0.02c-0.13-0.02-0.23-0.07-0.3-0.17c-0.09-0.11-0.14-0.27-0.15-0.47V3.83z
			 M92.11,0.88c0.04,0,0.09,0.02,0.15,0.05c0.14,0.08,0.24,0.25,0.3,0.49c0.03,0.11,0.05,0.71,0.05,1.79v1.23v0.91
			c0,1.24,0.02,1.93,0.06,2.06c0.01,0.08,0.06,0.14,0.15,0.17c0.05,0.02,0.25,0.02,0.59,0.02c0.47,0,0.81,0.07,1,0.22
			c0.18,0.15,0.27,0.4,0.27,0.76c0,0.18-0.07,0.37-0.2,0.56l-0.21,0.29L93.49,9.5c-0.48,0.02-0.75,0.07-0.8,0.15
			c-0.04,0.07-0.07,1.05-0.09,2.95c-0.01,2.11-0.05,3.36-0.12,3.76c-0.06,0.38-0.23,0.56-0.52,0.56c-0.19-0.02-0.32-0.07-0.39-0.17
			c-0.08-0.11-0.14-0.29-0.17-0.54c-0.02-0.34-0.01-1.64,0.03-3.88c0.04-2.14,0.06-4.49,0.06-7.05c0-1.77,0.01-2.77,0.02-3.02
			c0.02-0.38,0.05-0.65,0.09-0.81c0.08-0.23,0.16-0.38,0.24-0.44C91.94,0.92,92.03,0.88,92.11,0.88z"/>
	</g>
</g>
</svg>
